<svg width="488" height="390" viewBox="0 0 488 390" fill="none" xmlns="http://www.w3.org/2000/svg">
<rect x="77" y="137" width="207" height="30" fill="black"/>
<rect x="77" y="287" width="207" height="30" fill="black"/>
<rect x="77" y="317" width="180" height="30" transform="rotate(-90 77 317)" fill="black"/>
<rect x="254" y="215" width="78" height="30" transform="rotate(-90 254 215)" fill="black"/>
<rect x="205" y="264" width="78" height="30" transform="rotate(-90 205 264)" fill="black"/>
<rect x="205" y="84" width="207" height="30" fill="black"/>
<rect x="205" y="234" width="207" height="30" fill="black"/>
<rect x="382" y="264" width="180" height="30" transform="rotate(-90 382 264)" fill="black"/>
<path d="M24.5643 364.207L83.4298 263.659L125.976 306.842L24.5643 364.207Z" fill="black"/>
<path d="M460.757 22.6507L411.058 128.031L364.843 88.7992L460.757 22.6507Z" fill="black"/>
</svg>
